<?xml version="1.0" encoding="utf-8"?>
<!-- Generator: Adobe Illustrator 15.0.0, SVG Export Plug-In . SVG Version: 6.00 Build 0)  -->
<!DOCTYPE svg PUBLIC "-//W3C//DTD SVG 1.1//EN" "http://www.w3.org/Graphics/SVG/1.1/DTD/svg11.dtd">
<svg version="1.1" id="Layer_1" xmlns="http://www.w3.org/2000/svg" xmlns:xlink="http://www.w3.org/1999/xlink" x="0px" y="0px"
	 width="841.89px" height="841.89px" viewBox="0 0 841.89 841.89" enable-background="new 0 0 841.89 841.89" xml:space="preserve">
<rect x="-991.45" y="56.997" fill="#FFFFFF" width="841.889" height="841.89"/>
<g>
	<g>
		<path fill="#F1B51C" d="M466.009,42.536l-24.279,76.218c-5.852,18.891-14.844,31.763-26.984,38.62
			c-12.14,6.862-32.83,10.287-62.06,10.287c-6.968,0-15.564-0.221-25.795-0.674c-10.236-0.448-21.757-1.124-34.572-2.024
			L246.79,453.661c-1.127,8.318-1.973,16.188-2.527,23.61c-0.565,7.416-0.846,14.052-0.846,19.895
			c0,6.298,0.673,11.922,2.023,16.862c1.349,4.949,3.48,9.673,6.41,14.164H85.911c7.644-6.516,14.225-16.188,19.732-29.003
			c5.51-12.815,9.497-27.765,11.974-44.858l46.208-292.742c-45.196,0.675-79.319,2.759-102.361,6.239
			c-23.05,3.489-39.52,8.715-49.41,15.684l13.827-71.163c4.497-22.708,15.122-38.499,31.873-47.385
			c16.748-8.878,46.818-13.32,90.217-13.32c24.958,0,59.696,0.897,104.213,2.695c44.521,1.803,76.564,2.699,96.122,2.699
			c33.727,0,59.748-1.123,78.081-3.374C444.704,51.423,457.916,47.712,466.009,42.536z"/>
	</g>
	<path fill="#00AB4E" d="M827.326,85.052c-1.674-3.679-4.52-7.195-8.531-10.537c-8.928-7.14-22.755-13.161-41.489-18.069
		c-18.734-4.903-38.698-7.362-59.887-7.362c-46.842,0-85.042,12.436-114.594,37.308c-29.557,24.872-44.327,56.822-44.327,95.854
		c0,14.946,2.672,29.896,8.028,44.832c5.355,14.949,12.934,28.998,22.75,42.159c10.037,12.712,26.877,32.233,50.52,58.551
		c7.135,7.583,12.491,13.384,16.063,17.395c9.584,10.934,16.225,19.742,19.903,26.434c3.684,6.691,5.522,13.161,5.522,19.404
		c0,10.263-4.796,18.684-14.391,25.26c-9.59,6.58-22.191,9.871-37.802,9.871c-15.177,0-32.288-3.12-51.36-9.373
		c-16.064-5.253-33.366-12.662-51.883-22.2c13.831-22.643,24.288-39.992,31.359-52.002c6.964-11.613,13.545-18.961,19.738-22.062
		c3.862-1.931,13.54-3.674,29.024-5.227v-15.67H502.637v16.252c12.772,0.389,20.51,0.781,23.226,1.165
		c9.668,1.941,14.511,6.192,14.511,12.768c0,11.609-9.287,30.58-27.865,56.893c-16.258-26.313-33.292-58.051-51.083-95.207
		c12.768-5.416,23.596-13.734,32.505-24.964c8.901-11.22,13.356-23.601,13.356-37.15c0-17.797-6.388-31.73-19.16-41.8
		c-12.773-10.06-28.064-15.093-45.861-15.093c-26.701,0-48.966,7.745-66.759,23.222c-18.199,16.641-27.284,38.121-27.284,64.434
		c0,14.326,3.863,31.162,11.609,50.51c-28.254,6.585-50.127,19.737-65.603,39.476c-15.481,19.737-23.218,44.119-23.218,73.146
		c0,29.806,8.319,54.77,24.964,74.886c17.792,21.679,41.212,32.512,70.243,32.512c31.346,0,59.984-15.676,85.918-47.022
		c25.149,34.193,61.537,66.823,109.135,97.906c52.627,34.193,97.527,51.286,134.683,51.286c51.088,0,76.63-18.466,76.63-55.403
		c0-11.539-3.1-21.442-9.289-29.716c-6.193-8.271-14.898-12.407-26.119-12.407c-10.453,0-19.45,4.09-26.997,12.297
		c-7.547,8.194-11.322,17.247-11.322,27.158c0,6.097,3.679,18.296,11.031,36.602l-1.16,0.572
		c-8.911-5.031-15.094-9.099-18.578-12.189c-24.169-20.366-46.596-41.438-67.285-63.224c1.395,0.019,2.801,0.032,4.22,0.032
		c56.65,0,101.986-13.717,136.003-41.152c34.018-27.432,51.022-63.565,51.022-108.4c0-19.179-5.018-38.306-15.056-57.377
		c-10.036-19.072-33.121-48.347-69.254-87.827c-1.793-2.006-4.574-5.13-8.363-9.368c-21.416-23.419-32.118-40.371-32.118-50.856
		c0-10.255,3.622-18.235,10.869-23.92c7.246-5.689,17.339-8.531,30.278-8.531c14.944,0,29.89,3.008,44.835,9.029
		c14.937,6.027,29.89,14.951,44.836,26.767l9.03-75.28c0.222-1.553,0.388-3.06,0.502-4.515c0.107-1.446,0.168-3.623,0.168-6.525
		C829.836,93.25,828.999,88.735,827.326,85.052z M423.105,474.932c-21.674,0-38.893-13.15-51.666-39.475
		c-10.449-21.669-15.676-44.498-15.676-68.5c0-18.961,3.484-32.123,10.453-39.475c21.669,53.024,47.021,100.429,76.047,142.228
		C437.228,473.189,430.841,474.932,423.105,474.932z M454.455,276.977c-12.772-28.052-19.159-50.455-19.159-67.208
		c0-13.24,5.228-19.876,15.675-19.876c14.704,0,22.062,14.817,22.062,44.42C473.032,254.189,466.836,268.414,454.455,276.977z"/>
	<g>
		<path fill="#B1B3B6" d="M136.902,568.383l1.22-3.919h6.784l7.302,24.529l-8,3.221l-1.044-1.566
			c-1.683-2.494-3.101-4.464-4.261-5.914c-1.797-2.204-3.48-3.915-5.046-5.135c-2.149-1.566-4.367-2.782-6.654-3.65
			c-2.289-0.874-4.709-1.303-7.26-1.303c-3.134,0-5.805,0.604-8.003,1.824c-2.843,1.563-4.261,3.854-4.261,6.868
			c0,2.494,1.534,4.468,4.607,5.915c1.216,0.582,3.766,1.395,7.658,2.439l4.084,0.869l7.653,2.348
			c4.123,1.16,7.075,2.06,8.874,2.698c3.42,1.215,6.233,2.578,8.438,4.086c2.606,1.803,4.622,4.278,6.045,7.436
			c1.422,3.16,2.134,6.511,2.134,10.046c0,9.104-3.253,16.472-9.745,22.094c-6.031,5.218-13.338,7.829-21.919,7.829
			c-3.474,0-7.088-0.609-10.827-1.825s-6.858-2.87-9.349-4.96l-1.572,5.481h-6.608l-9.39-30.445l8.522-3.044
			c3.244,6.729,7.135,12.006,11.655,15.831c5.222,4.41,11.017,6.608,17.394,6.608c3.715,0,6.876-0.753,9.482-2.258
			c3.309-1.915,4.959-4.724,4.959-8.439c0-2.838-1.419-5.014-4.266-6.521c-1.1-0.576-3.678-1.422-7.736-2.522l-12.792-3.391
			c-4.113-1.046-7.098-1.886-8.956-2.524c-3.419-1.22-6.207-2.639-8.351-4.265c-2.491-1.969-4.396-4.534-5.698-7.694
			c-1.304-3.161-1.959-6.479-1.959-9.959c0-8.18,2.93-14.788,8.79-19.834c5.449-4.696,12.034-7.044,19.742-7.044
			c3.133,0,6.322,0.55,9.566,1.65C131.365,565.046,134.291,566.525,136.902,568.383z"/>
		<path fill="#B1B3B6" d="M191.784,647.794c-3.771,0-7.274-0.554-10.523-1.653c-3.71-1.276-6.872-3.161-9.478-5.652
			c-2.902-2.842-5.134-6.41-6.701-10.697c-1.562-4.294-2.348-8.79-2.348-13.486c0-9.973,2.565-17.754,7.699-23.351
			c5.129-5.597,12.07-8.396,20.833-8.396c4.172,0,7.828,0.493,10.956,1.479c3.832,1.22,7.048,3.16,9.654,5.826
			c2.958,2.902,5.222,6.539,6.784,10.92c1.566,4.376,2.347,8.943,2.347,13.698c0,4.464-0.679,8.696-2.042,12.698
			c-1.359,4.003-3.378,7.45-6.045,10.353c-2.667,2.897-5.971,5.041-9.917,6.433C199.584,647.185,195.841,647.794,191.784,647.794z
			 M191.959,635.7c3.826,0,6.552-2.171,8.175-6.521c1.16-3.133,1.743-7.307,1.743-12.523c0-5.629-0.522-9.977-1.568-13.05
			c-1.566-4.641-4.347-6.96-8.35-6.96c-4.118,0-6.96,2.292-8.522,6.877c-1.104,3.188-1.655,7.564-1.655,13.133
			c0,6.839,1.012,11.857,3.042,15.047C186.506,634.369,188.887,635.7,191.959,635.7z"/>
		<path fill="#B1B3B6" d="M251.454,558.983v66.519c0,1.279,0.013,2.555,0.046,3.835c0.028,1.276,0.213,2.481,0.563,3.614
			c0.352,1.127,0.989,1.987,1.914,2.569c0.638,0.401,1.655,0.749,3.046,1.04l1.566,0.351v10.015h-31.665v-9.991
			c4.002-0.638,6.239-2.084,6.701-4.344c0.231-1.101,0.347-3.447,0.347-7.039v-41.267v-1.914c0-1.501-0.075-2.805-0.217-3.905
			c-0.149-1.104-0.537-1.913-1.174-2.431c-0.639-0.526-1.599-0.914-2.87-1.178c-1.281-0.259-2.639-0.389-4.09-0.389v-10.005
			c3.309,0,6.668-0.466,10.093-1.408c3.419-0.949,6.839-2.302,10.259-4.072H251.454z"/>
		<path fill="#B1B3B6" d="M288.599,586.211v38.444v2.699c0,3.364,0.333,5.597,0.998,6.697c0.666,1.099,1.691,1.648,3.087,1.648
			c1.793,0,3.855-0.604,6.174-1.825c1.626-0.869,3.484-2.116,5.568-3.739v-19.57c0-4.464-0.263-7.219-0.781-8.263
			c-0.813-1.622-2.93-2.666-6.349-3.133h-0.699v-10l18.703-2.959h6.784v39.314c0,3.886,0.056,6.178,0.176,6.871
			c0.401,2.555,2.458,4.057,6.173,4.524h0.694v10.005H306.34v-4.788c-5.685,3.771-11.687,5.656-18.004,5.656
			c-3.018,0-5.453-0.291-7.307-0.868c-2.435-0.754-4.496-2.189-6.174-4.307c-1.682-2.116-2.818-4.885-3.392-8.309
			c-0.352-2.145-0.526-5.306-0.526-9.479v-14.266c0-3.65-0.083-5.915-0.259-6.784c-0.522-2.491-2.87-4.029-7.042-4.611h-0.698v-10
			l18.703-2.959H288.599z"/>
		<path fill="#B1B3B6" d="M371.579,597.081h-14.613v27.75v2.001c0,3.13,0.36,5.218,1.081,6.263c0.731,1.044,1.784,1.565,3.18,1.565
			c1.22,0,2.782-0.766,4.695-2.306c1.913-1.539,3.392-3.031,4.436-4.482l6.433,8.702c-2.897,3.826-6.229,6.655-10,8.48
			c-3.771,1.825-7.972,2.739-12.612,2.739c-2.667,0-4.811-0.318-6.437-0.961c-2.029-0.809-3.827-2.199-5.389-4.173
			c-1.165-1.622-1.918-3.331-2.265-5.13c-0.351-1.797-0.522-3.974-0.522-6.524v-4.174v-29.751h-7.306v-9.479
			c1.451-0.23,2.884-0.739,4.306-1.52c1.419-0.786,2.764-1.756,4.044-2.917c1.913-2.028,3.305-4.32,4.173-6.872
			c0.583-1.681,1.132-4.437,1.654-8.263l0.259-1.132h10.269v19.312h14.613V597.081z"/>
		<path fill="#B1B3B6" d="M406.367,586.211v39.314c0,3.945,0.056,6.205,0.176,6.788c0.461,2.491,2.781,4.029,6.959,4.607v10.005
			h-32.968v-10.005c3.886-0.407,6.293-1.391,7.219-2.958c0.637-1.1,0.96-3.914,0.96-8.438v-14.96c0-4.464-0.268-7.219-0.804-8.263
			c-0.827-1.622-3.049-2.666-6.663-3.133h-0.712v-10l18.827-2.959H406.367z M396.542,558.549c2.721,0,5.042,1.165,6.954,3.479
			c1.914,2.32,2.87,5.074,2.87,8.264c0,3.193-1.058,5.961-3.17,8.308c-2.117,2.348-4.566,3.521-7.357,3.521
			c-2.723,0-5.01-1.131-6.867-3.392c-1.858-2.26-2.782-4.958-2.782-8.086c0-3.31,0.984-6.146,2.958-8.527
			C391.117,559.741,393.584,558.549,396.542,558.549z"/>
		<path fill="#B1B3B6" d="M448.208,647.794c-3.771,0-7.283-0.554-10.528-1.653c-3.715-1.276-6.871-3.161-9.482-5.652
			c-2.897-2.842-5.129-6.41-6.696-10.697c-1.566-4.294-2.348-8.79-2.348-13.486c0-9.973,2.565-17.754,7.695-23.351
			c5.134-5.597,12.08-8.396,20.832-8.396c4.178,0,7.828,0.493,10.961,1.479c3.827,1.22,7.049,3.16,9.659,5.826
			c2.958,2.902,5.213,6.539,6.783,10.92c1.563,4.376,2.349,8.943,2.349,13.698c0,4.464-0.684,8.696-2.043,12.698
			c-1.368,4.003-3.382,7.45-6.05,10.353c-2.666,2.897-5.975,5.041-9.912,6.433C456.003,647.185,452.265,647.794,448.208,647.794z
			 M448.379,635.7c3.826,0,6.553-2.171,8.175-6.521c1.16-3.133,1.743-7.307,1.743-12.523c0-5.629-0.523-9.977-1.567-13.05
			c-1.567-4.641-4.349-6.96-8.351-6.96c-4.117,0-6.956,2.292-8.527,6.877c-1.099,3.188-1.649,7.564-1.649,13.133
			c0,6.839,1.014,11.857,3.046,15.047C442.931,634.369,445.306,635.7,448.379,635.7z"/>
		<path fill="#B1B3B6" d="M509.181,604.392v23.31c0,3.475,0.286,5.726,0.868,6.737c0.583,1.018,1.941,1.845,4.086,2.482h0.873
			v10.005h-31.484v-10.005c3.767-0.407,6.114-1.391,7.042-2.958c0.639-1.1,0.956-3.914,0.956-8.438v-14.96
			c0-3.65-0.087-5.915-0.263-6.784c-0.518-2.491-2.865-4.029-7.042-4.611h-0.693v-10l18.697-2.959h5.306v5.131
			c3.077-2.261,5.887-3.911,8.438-4.96c2.958-1.215,6.032-1.824,9.22-1.824c2.552,0,4.903,0.448,7.047,1.35
			c2.146,0.9,4.133,2.375,5.958,4.437c1.825,2.061,3.026,4.261,3.608,6.608c0.583,2.347,0.87,5.296,0.87,8.831v19.742v2.785
			c0,0.81,0.017,1.595,0.046,2.348c0.027,0.754,0.157,1.595,0.388,2.524c0.231,0.923,0.813,1.683,1.742,2.26
			c0.402,0.291,1.391,0.666,2.957,1.132l1.913,0.347v10.005h-30.615v-10.005c2.782-0.578,4.52-1.508,5.217-2.782
			c0.463-0.868,0.698-2.902,0.698-6.091v-20.699c0-2.785-0.235-4.843-0.698-6.179c-0.752-2.144-2.204-3.215-4.349-3.215
			c-1.737,0-3.683,0.692-5.831,2.084C512.281,601.259,510.632,602.71,509.181,604.392z"/>
	</g>
	<g>
		<path fill="#B1B3B6" d="M97.732,675.91l-9.973,27.741l9.016,3.651c2.043-3.517,3.457-5.855,4.229-7.006
			c1.465-2.237,3.008-4.16,4.603-5.759c1.857-1.792,3.804-3.268,5.864-4.418c2.426-1.34,4.664-2.015,6.715-2.015
			c1.215,0,1.912,0.166,2.106,0.48c0.194,0.324,0.291,1.216,0.291,2.685v51.644v2.688c0,2.107-0.11,3.665-0.336,4.654
			c-0.227,0.99-0.56,1.747-1.008,2.256c-0.772,1.215-1.968,2.084-3.601,2.587c-1.631,0.519-3.34,0.772-5.138,0.772h-1.525v11.044
			h45.199v-11.044h-1.344c-1.534,0-3.197-0.268-4.991-0.822c-1.792-0.532-3.055-1.336-3.785-2.391
			c-0.739-1.062-1.169-2.318-1.299-3.793c-0.129-1.47-0.194-3.458-0.194-5.952v-51.644c0-1.404,0.112-2.287,0.343-2.634
			c0.218-0.35,0.906-0.531,2.056-0.531c2.047,0,4.317,0.707,6.812,2.112c2.117,1.149,4.099,2.593,5.952,4.32
			c1.479,1.599,2.981,3.555,4.511,5.855c0.586,0.836,1.955,3.129,4.136,6.909l9.016-3.651l-9.982-27.741H97.732z"/>
		<path fill="#B1B3B6" d="M224.484,750.812c-2.814,2.482-5.823,3.721-9.017,3.721c-4.736,0-8.323-2.195-10.753-6.6
			c-2.112-3.886-3.167-9.206-3.167-15.961h37.525v-2.691c0-9.626-2.685-17.296-8.059-23.009c-5.121-5.458-11.803-8.179-20.056-8.179
			c-8.841,0-16.124,3.211-21.85,9.64c-5.721,6.433-8.585,14.705-8.585,24.815c0,10.625,2.943,19.16,8.831,25.626
			c5.887,6.464,13.448,9.7,22.658,9.7c6.521,0,12.108-1.688,16.747-5.069c4.64-3.384,8.554-8.353,11.757-14.924l-9.691-5.643
			C228.902,745.927,226.785,748.783,224.484,750.812z M204.857,713.977c1.826-1.822,3.92-2.741,6.285-2.741
			c2.436,0,4.39,0.901,5.855,2.693c1.469,1.793,2.213,4.118,2.213,7.007h-17.094C202.117,718.111,203.027,715.801,204.857,713.977z"
			/>
		<path fill="#B1B3B6" d="M293.835,751.167c-2.889,2.237-6.082,3.365-9.603,3.365c-4.409,0-7.866-2.312-10.362-6.919
			c-2.112-3.965-3.165-8.669-3.165-14.108c0-5.823,0.6-10.689,1.816-14.589c1.793-5.758,4.736-8.638,8.832-8.638
			c1.792,0,3.424,0.675,4.894,2.011c0.832,0.707,1.326,1.446,1.488,2.213c0.166,0.763,0.245,1.923,0.245,3.457
			c0,1.729,0.147,3.188,0.43,4.362c0.287,1.184,0.915,2.311,1.871,3.364c0.958,1.054,2.094,1.899,3.406,2.542
			c1.317,0.638,2.579,0.961,3.799,0.961c2.745,0,5.032-1.035,6.857-3.119c1.826-2.075,2.736-4.723,2.736-7.926
			c0-3.451-0.989-6.553-2.976-9.307c-1.599-2.173-3.901-4.188-6.914-6.046c-5.181-3.137-10.523-4.698-16.022-4.698
			c-9.219,0-16.771,3.202-22.658,9.598c-5.888,6.4-8.831,14.876-8.831,25.432c0,10.364,2.861,18.748,8.591,25.148
			c5.721,6.4,13.068,9.604,22.03,9.604c6.723,0,12.634-1.642,17.759-4.899c5.508-3.521,9.432-8.637,11.803-15.361l-9.312-5.467
			C298.951,745.917,296.714,748.931,293.835,751.167z"/>
		<path fill="#B1B3B6" d="M385.594,754.24c-0.803-0.513-1.363-1.404-1.682-2.686c-0.323-1.279-0.5-2.624-0.536-4.039
			c-0.028-1.399-0.046-2.805-0.046-4.214v-21.988c0-3.771-0.245-6.908-0.763-9.404c-0.512-2.499-1.696-4.857-3.553-7.103
			c-3.711-4.478-8.383-6.714-14.011-6.714c-3.258,0-6.563,0.637-9.885,1.913c-2.684,1.029-5.605,2.56-8.734,4.611v-34.746h-6.34
			c-3.771,1.945-7.519,3.447-11.225,4.482c-3.715,1.049-7.362,1.557-10.948,1.557v11.046c1.608,0,3.091,0.146,4.459,0.429
			c1.381,0.287,2.514,0.758,3.416,1.387c0.578,0.576,0.947,1.428,1.104,2.546c0.152,1.123,0.235,2.574,0.235,4.367v2.107v45.532
			c0,4.16-0.129,6.748-0.375,7.77c-0.582,2.426-3.332,4.021-8.253,4.792v11.03h34.358v-11.044l-1.729-0.384
			c-1.279-0.389-2.203-0.772-2.79-1.15c-0.828-0.643-1.336-1.581-1.53-2.829c-0.189-1.252-0.301-2.578-0.333-3.993
			c-0.032-1.399-0.05-2.805-0.05-4.214v-25.158c1.539-1.465,3.585-2.718,6.146-3.738c2.555-1.031,5.014-1.538,7.389-1.538
			c1.729,0,2.879,0.868,3.452,2.598c0.318,0.96,0.48,2.743,0.48,5.374v2.009v20.454v2.204c0,1.6-0.051,2.943-0.147,4.029
			c-0.097,1.087-0.315,2.039-0.661,2.833c-0.362,0.8-0.86,1.424-1.492,1.872c-1.022,0.514-2.016,0.989-2.977,1.438l-1.252,0.194
			v11.044h33.892v-11.044l-2.02-0.384C387.596,755.164,386.394,754.754,385.594,754.24z"/>
		<path fill="#B1B3B6" d="M466.322,754.24c-1.029-0.642-1.672-1.469-1.932-2.5c-0.249-1.021-0.396-1.945-0.429-2.776
			c-0.032-0.829-0.043-1.696-0.043-2.598v-3.064v-21.79c0-3.904-0.321-7.152-0.964-9.741c-0.639-2.593-1.97-5.026-3.979-7.297
			c-2.01-2.273-4.211-3.909-6.576-4.898c-2.371-0.988-4.959-1.482-7.777-1.482c-3.522,0-6.909,0.665-10.172,2.01
			c-2.818,1.159-5.92,2.976-9.308,5.472v-5.656h-5.855l-20.639,3.258v11.035h0.772c4.602,0.643,7.19,2.344,7.769,5.087
			c0.194,0.963,0.291,3.453,0.291,7.491v16.513c0,4.986-0.356,8.092-1.055,9.308c-1.03,1.729-3.618,2.814-7.777,3.263v11.044h34.748
			v-11.044h-0.966c-2.366-0.708-3.869-1.618-4.516-2.735c-0.632-1.12-0.956-3.602-0.956-7.438V719.97
			c1.603-1.858,3.42-3.448,5.472-4.792c2.371-1.54,4.52-2.311,6.434-2.311c2.364,0,3.964,1.19,4.801,3.558
			c0.509,1.469,0.764,3.738,0.764,6.812v22.848c0,3.516-0.255,5.758-0.764,6.72c-0.771,1.404-2.694,2.426-5.758,3.068v11.044h33.78
			v-11.044l-2.107-0.384C467.844,754.979,466.758,754.564,466.322,754.24z"/>
		<path fill="#B1B3B6" d="M534.611,706.151c-2.879-2.943-6.433-5.083-10.666-6.433c-3.447-1.085-7.477-1.626-12.08-1.626
			c-9.668,0-17.33,3.087-22.999,9.26c-5.662,6.17-8.49,14.766-8.49,25.77c0,5.184,0.869,10.147,2.594,14.884
			c1.728,4.733,4.19,8.665,7.389,11.799c2.879,2.753,6.363,4.833,10.462,6.243c3.582,1.216,7.459,1.826,11.609,1.826
			c4.477,0,8.613-0.675,12.385-2.021c4.353-1.534,8.004-3.9,10.938-7.103c2.953-3.198,5.175-7.011,6.682-11.419
			c1.503-4.418,2.256-9.091,2.256-14.012c0-5.25-0.869-10.291-2.593-15.126C540.369,713.37,537.868,709.354,534.611,706.151z
			 M521.645,747.332c-1.784,4.801-4.792,7.2-9.021,7.2c-3.387,0-6.017-1.476-7.865-4.419c-2.245-3.521-3.354-9.058-3.354-16.608
			c0-6.138,0.601-10.971,1.816-14.491c1.732-5.053,4.865-7.584,9.403-7.584c4.413,0,7.487,2.563,9.216,7.681
			c1.15,3.392,1.736,8.192,1.736,14.395C523.575,739.272,522.924,743.874,521.645,747.332z"/>
		<path fill="#B1B3B6" d="M583.033,754.327c-1.022-0.646-1.729-1.588-2.116-2.836c-0.384-1.248-0.593-2.579-0.625-3.988
			c-0.033-1.415-0.051-2.814-0.051-4.229v-73.403h-6.04c-3.771,1.945-7.551,3.447-11.332,4.482
			c-3.775,1.049-7.481,1.557-11.133,1.557v11.046c1.601,0,3.107,0.146,4.517,0.429c1.404,0.287,2.468,0.721,3.165,1.298
			c0.702,0.568,1.133,1.471,1.294,2.685c0.167,1.217,0.244,2.654,0.244,4.317v2.107v45.532c0,3.966-0.129,6.554-0.387,7.77
			c-0.513,2.491-2.978,4.086-7.389,4.792v11.03h34.936v-11.053l-1.729-0.389C584.854,755.156,583.73,754.776,583.033,754.327z"/>
		<path fill="#B1B3B6" d="M650.077,706.151c-2.883-2.943-6.437-5.083-10.651-6.433c-3.457-1.085-7.496-1.626-12.103-1.626
			c-9.664,0-17.321,3.087-22.987,9.26c-5.661,6.17-8.493,14.766-8.493,25.77c0,5.184,0.859,10.147,2.598,14.884
			c1.719,4.733,4.181,8.665,7.38,11.799c2.883,2.753,6.372,4.833,10.467,6.243c3.576,1.216,7.454,1.826,11.613,1.826
			c4.477,0,8.604-0.675,12.386-2.021c4.344-1.534,7.994-3.9,10.938-7.103c2.943-3.198,5.166-7.011,6.673-11.419
			c1.507-4.418,2.255-9.091,2.255-14.012c0-5.25-0.859-10.291-2.598-15.126C655.826,713.37,653.341,709.354,650.077,706.151z
			 M637.111,747.332c-1.789,4.801-4.798,7.2-9.017,7.2c-3.396,0-6.018-1.476-7.875-4.419c-2.236-3.521-3.355-9.058-3.355-16.608
			c0-6.138,0.601-10.971,1.825-14.491c1.725-5.053,4.857-7.584,9.405-7.584c4.412,0,7.486,2.563,9.215,7.681
			c1.151,3.392,1.723,8.192,1.723,14.395C639.032,739.272,638.396,743.874,637.111,747.332z"/>
		<path fill="#B1B3B6" d="M724.799,687.339c-3.517,0-6.725,1.15-9.598,3.452c-2.436,1.922-4.738,4.736-6.914,8.451
			c-3.322-0.513-5.535-0.835-6.622-0.956c-1.086-0.13-2.278-0.193-3.554-0.193c-7.038,0-12.958,2.204-17.76,6.617
			c-5.181,4.742-7.778,11.045-7.778,18.91c0,3.71,0.699,7.167,2.071,10.371c1.367,3.197,3.281,5.726,5.707,7.572
			c-3.323,0.772-5.984,2.678-7.962,5.718c-1.987,3.04-2.977,6.575-2.977,10.61c0,4.731,1.881,8.665,5.661,11.798
			c-2.437,1.03-4.349,2.547-5.759,4.556c-1.409,2.02-2.11,4.502-2.11,7.445c0,6.908,3.77,11.841,11.321,14.783
			c4.932,1.923,11.202,2.88,18.813,2.88c3.844,0,7.875-0.352,12.103-1.055c4.215-0.705,7.709-1.792,10.458-3.263
			c3.587-1.926,6.446-4.727,8.591-8.4c2.149-3.679,3.217-7.705,3.217-12.048c0-2.75-0.421-5.265-1.247-7.533
			c-0.829-2.272-2.191-4.21-4.081-5.809c-1.892-1.599-4.012-2.75-6.383-3.451c-2.365-0.708-4.898-1.063-7.578-1.063l-15.546-1.816
			c-3.532,0-6.197-0.383-8.023-1.155c-1.825-0.768-2.729-1.89-2.729-3.364c0-0.827,0.216-1.565,0.664-2.204
			c0.453-0.643,0.988-0.956,1.637-0.956l1.815,0.192c2.436,0.643,4.308,1.04,5.62,1.193c1.308,0.162,2.635,0.245,3.982,0.245
			c7.232,0,13.282-2.177,18.139-6.53c5.251-4.736,7.875-11.1,7.875-19.1c0-3.841-0.799-7.394-2.397-10.656
			c-1.6-3.258-3.847-6.105-6.725-8.546c0.901-1.206,2.149-1.814,3.748-1.814c0.638,0,1.4,0.193,2.301,0.571
			c1.987,0.829,3.263,1.243,3.836,1.243c1.987,0,3.697-0.678,5.144-2.06c1.434-1.377,2.157-3.181,2.157-5.427
			c0-2.749-0.91-4.967-2.743-6.662C729.355,688.189,727.234,687.339,724.799,687.339z M705.985,777.083
			c1.15,0.194,2.335,0.416,3.555,0.675c2.749,0.638,4.117,2.075,4.117,4.32c0,1.146-0.301,2.076-0.906,2.782
			c-0.609,0.708-1.428,1.28-2.448,1.729c-1.6,0.707-3.555,1.168-5.855,1.386c-2.306,0.226-4.736,0.343-7.302,0.343
			c-2.236,0-4.607-0.231-7.103-0.676c-6.585-1.151-9.875-3.424-9.875-6.812c0-1.409,0.378-2.677,1.149-3.794
			c0.764-1.118,1.696-2.006,2.783-2.644L705.985,777.083z M705.694,733.505c-1.344,2.624-3.618,3.942-6.812,3.942
			c-3.138,0-5.314-1.35-6.529-4.04c-0.902-1.913-1.345-4.889-1.345-8.919c0-4.292,0.378-7.454,1.159-9.505
			c1.207-3.129,3.387-4.705,6.521-4.705c3.453,0,5.855,1.479,7.2,4.414c0.956,2.116,1.438,5.374,1.438,9.796
			C707.326,728.39,706.78,731.397,705.694,733.505z"/>
		<path fill="#B1B3B6" d="M775.518,699.918v10.744h0.776c1.849,0,3.295,0.208,4.315,0.623c1.021,0.421,1.529,1.461,1.529,3.116
			c0,0.582-0.097,1.19-0.291,1.829c-0.184,0.634-0.411,1.404-0.68,2.298l-7.73,22.884l-8.036-23.251c0-0.194-0.152-0.78-0.462-1.773
			c-0.305-0.993-0.453-1.715-0.453-2.167c0-1.729,0.924-2.824,2.772-3.268c0.78-0.193,2.403-0.291,4.899-0.291v-10.744h-35.991
			v10.744h0.956c2.437,0.259,4.253,1.128,5.467,2.593c0.846,1.021,1.836,3.04,2.986,6.043l18.139,47.031
			c-0.768,2.053-1.95,4.455-3.559,7.204c-1.979,3.453-3.484,5.183-4.511,5.183c-1.335-1.152-2.676-2.271-4.02-3.361
			c-1.475-1.021-3.073-1.53-4.803-1.53c-2.888,0-5.189,1.055-6.918,3.162c-1.728,2.107-2.588,4.77-2.588,7.963
			c0,3.715,1.317,6.603,3.938,8.646c2.366,1.858,5.277,2.782,8.735,2.782c5.309,0,10.013-1.954,14.108-5.855
			c1.603-1.599,2.967-3.327,4.08-5.181c1.118-1.856,2.579-5.06,4.368-9.602l20.249-50.872c1.858-4.606,3.489-7.713,4.89-9.312
			c2.061-2.431,4.995-4.061,8.84-4.894v-10.744H775.518z"/>
	</g>
</g>
</svg>
